<svg xmlns="http://www.w3.org/2000/svg" width="27" height="27" viewBox="0 0 27 27"><path d="M61.5,48A13.5,13.5,0,1,0,75,61.5,13.5,13.5,0,0,0,61.5,48Zm0,1.123A12.371,12.371,0,0,1,71,69.431c-1.3-.532-4.277-1.564-6.03-2.083-.156-.045-.175-.058-.175-.694a3.693,3.693,0,0,1,.428-1.512,7.543,7.543,0,0,0,.6-2.051,4.56,4.56,0,0,0,.883-2.135,2.848,2.848,0,0,0-.026-1.791,1.147,1.147,0,0,1-.039-.11,11.671,11.671,0,0,1,.2-2.518,4.637,4.637,0,0,0-.967-3.33,4.961,4.961,0,0,0-3.8-1.817H60.935a4.955,4.955,0,0,0-3.764,1.817,4.617,4.617,0,0,0-.974,3.33,11.672,11.672,0,0,1,.2,2.518c-.013.045-.026.078-.039.117a2.8,2.8,0,0,0-.026,1.791,4.631,4.631,0,0,0,.883,2.135,7.856,7.856,0,0,0,.6,2.051,3.626,3.626,0,0,1,.247,1.532c0,.643-.026.649-.169.694-1.824.539-4.712,1.577-5.867,2.077A12.369,12.369,0,0,1,61.5,49.123Z" transform="translate(-48 -48)" fill="#5ca3b7"/></svg>